<mxfile host="app.diagrams.net" modified="2023-12-02T07:30:19.326Z" agent="Mozilla/5.0 (Macintosh; Intel Mac OS X 10_15_7) AppleWebKit/537.36 (KHTML, like Gecko) Chrome/119.0.0.0 Safari/537.36" etag="pnBIMX7zZeVWV-GCIatk" version="22.1.5" type="github">
  <diagram name="Page-1" id="74e2e168-ea6b-b213-b513-2b3c1d86103e">
    <mxGraphModel dx="988" dy="503" grid="1" gridSize="10" guides="1" tooltips="1" connect="1" arrows="1" fold="1" page="1" pageScale="1" pageWidth="1100" pageHeight="850" background="none" math="0" shadow="0">
      <root>
        <mxCell id="0" />
        <mxCell id="1" parent="0" />
        <mxCell id="j25qMS8JwtOt_eP3hICq-1" value="电销对接小手机" style="swimlane;childLayout=stackLayout;resizeParent=1;resizeParentMax=0;startSize=20;html=1;" vertex="1" parent="1">
          <mxGeometry x="360.00000000000045" y="130" width="910" height="1100" as="geometry" />
        </mxCell>
        <mxCell id="j25qMS8JwtOt_eP3hICq-14" value="坐席" style="swimlane;startSize=20;html=1;" vertex="1" parent="j25qMS8JwtOt_eP3hICq-1">
          <mxGeometry y="20" width="120" height="1080" as="geometry" />
        </mxCell>
        <mxCell id="j25qMS8JwtOt_eP3hICq-15" value="登录MBS软件" style="ellipse;whiteSpace=wrap;html=1;" vertex="1" parent="j25qMS8JwtOt_eP3hICq-14">
          <mxGeometry x="19.999999999999545" y="140" width="60" height="40" as="geometry" />
        </mxCell>
        <mxCell id="j25qMS8JwtOt_eP3hICq-18" value="发起点呼" style="ellipse;whiteSpace=wrap;html=1;" vertex="1" parent="j25qMS8JwtOt_eP3hICq-14">
          <mxGeometry x="19.999999999999545" y="220" width="60" height="40" as="geometry" />
        </mxCell>
        <mxCell id="j25qMS8JwtOt_eP3hICq-42" value="填写小结" style="ellipse;whiteSpace=wrap;html=1;" vertex="1" parent="j25qMS8JwtOt_eP3hICq-14">
          <mxGeometry x="19.999999999999545" y="440" width="60" height="40" as="geometry" />
        </mxCell>
        <mxCell id="j25qMS8JwtOt_eP3hICq-52" value="查看录音" style="ellipse;whiteSpace=wrap;html=1;" vertex="1" parent="j25qMS8JwtOt_eP3hICq-14">
          <mxGeometry x="29.999999999999545" y="970" width="60" height="40" as="geometry" />
        </mxCell>
        <mxCell id="j25qMS8JwtOt_eP3hICq-2" value="电销系统" style="swimlane;startSize=20;html=1;" vertex="1" parent="j25qMS8JwtOt_eP3hICq-1">
          <mxGeometry x="120" y="20" width="230" height="1080" as="geometry" />
        </mxCell>
        <mxCell id="j25qMS8JwtOt_eP3hICq-10" style="edgeStyle=orthogonalEdgeStyle;rounded=0;orthogonalLoop=1;jettySize=auto;html=1;" edge="1" parent="j25qMS8JwtOt_eP3hICq-2" source="j25qMS8JwtOt_eP3hICq-7">
          <mxGeometry relative="1" as="geometry">
            <mxPoint x="279.99999999999955" y="70" as="targetPoint" />
          </mxGeometry>
        </mxCell>
        <mxCell id="j25qMS8JwtOt_eP3hICq-7" value="提供坐席信息excel文件" style="rounded=1;whiteSpace=wrap;html=1;" vertex="1" parent="j25qMS8JwtOt_eP3hICq-2">
          <mxGeometry x="54.999999999999545" y="40" width="120" height="60" as="geometry" />
        </mxCell>
        <mxCell id="j25qMS8JwtOt_eP3hICq-27" value="" style="edgeStyle=orthogonalEdgeStyle;rounded=0;orthogonalLoop=1;jettySize=auto;html=1;" edge="1" parent="j25qMS8JwtOt_eP3hICq-2" source="j25qMS8JwtOt_eP3hICq-19" target="j25qMS8JwtOt_eP3hICq-26">
          <mxGeometry relative="1" as="geometry" />
        </mxCell>
        <mxCell id="j25qMS8JwtOt_eP3hICq-19" value="组装用户数据，随路信息等" style="rounded=1;whiteSpace=wrap;html=1;" vertex="1" parent="j25qMS8JwtOt_eP3hICq-2">
          <mxGeometry x="54.999999999999545" y="210" width="120" height="60" as="geometry" />
        </mxCell>
        <mxCell id="j25qMS8JwtOt_eP3hICq-26" value="请求成功，添加呼叫记录数据" style="rounded=1;whiteSpace=wrap;html=1;" vertex="1" parent="j25qMS8JwtOt_eP3hICq-2">
          <mxGeometry x="54.999999999999545" y="320" width="120" height="60" as="geometry" />
        </mxCell>
        <mxCell id="j25qMS8JwtOt_eP3hICq-39" value="" style="edgeStyle=orthogonalEdgeStyle;rounded=0;orthogonalLoop=1;jettySize=auto;html=1;" edge="1" parent="j25qMS8JwtOt_eP3hICq-2" source="j25qMS8JwtOt_eP3hICq-36" target="j25qMS8JwtOt_eP3hICq-38">
          <mxGeometry relative="1" as="geometry" />
        </mxCell>
        <mxCell id="j25qMS8JwtOt_eP3hICq-36" value="处理话单数据" style="rounded=1;whiteSpace=wrap;html=1;" vertex="1" parent="j25qMS8JwtOt_eP3hICq-2">
          <mxGeometry x="54.999999999999545" y="600" width="120" height="60" as="geometry" />
        </mxCell>
        <mxCell id="j25qMS8JwtOt_eP3hICq-41" value="" style="edgeStyle=orthogonalEdgeStyle;rounded=0;orthogonalLoop=1;jettySize=auto;html=1;" edge="1" parent="j25qMS8JwtOt_eP3hICq-2" source="j25qMS8JwtOt_eP3hICq-38" target="j25qMS8JwtOt_eP3hICq-40">
          <mxGeometry relative="1" as="geometry" />
        </mxCell>
        <mxCell id="j25qMS8JwtOt_eP3hICq-38" value="更新话单记录tel_name_call表" style="rounded=1;whiteSpace=wrap;html=1;" vertex="1" parent="j25qMS8JwtOt_eP3hICq-2">
          <mxGeometry x="54.999999999999545" y="720" width="120" height="60" as="geometry" />
        </mxCell>
        <mxCell id="j25qMS8JwtOt_eP3hICq-40" value="更新tel_name名单表" style="rounded=1;whiteSpace=wrap;html=1;" vertex="1" parent="j25qMS8JwtOt_eP3hICq-2">
          <mxGeometry x="54.999999999999545" y="840" width="120" height="60" as="geometry" />
        </mxCell>
        <mxCell id="j25qMS8JwtOt_eP3hICq-50" value="保存小结" style="edgeStyle=orthogonalEdgeStyle;rounded=0;orthogonalLoop=1;jettySize=auto;html=1;entryX=1;entryY=0.5;entryDx=0;entryDy=0;" edge="1" parent="j25qMS8JwtOt_eP3hICq-2" source="j25qMS8JwtOt_eP3hICq-43" target="j25qMS8JwtOt_eP3hICq-26">
          <mxGeometry relative="1" as="geometry">
            <Array as="points">
              <mxPoint x="195" y="460" />
              <mxPoint x="195" y="350" />
            </Array>
          </mxGeometry>
        </mxCell>
        <mxCell id="j25qMS8JwtOt_eP3hICq-43" value="保存小结到通话记录" style="rounded=1;whiteSpace=wrap;html=1;" vertex="1" parent="j25qMS8JwtOt_eP3hICq-2">
          <mxGeometry x="54.999999999999545" y="430" width="120" height="60" as="geometry" />
        </mxCell>
        <mxCell id="j25qMS8JwtOt_eP3hICq-55" value="录音查询接口" style="rounded=1;whiteSpace=wrap;html=1;" vertex="1" parent="j25qMS8JwtOt_eP3hICq-2">
          <mxGeometry x="54.999999999999545" y="960" width="120" height="60" as="geometry" />
        </mxCell>
        <mxCell id="j25qMS8JwtOt_eP3hICq-3" value="工作手机平台" style="swimlane;startSize=20;html=1;" vertex="1" parent="j25qMS8JwtOt_eP3hICq-1">
          <mxGeometry x="350" y="20" width="200" height="1080" as="geometry" />
        </mxCell>
        <mxCell id="j25qMS8JwtOt_eP3hICq-11" value="导入到指掌易后台" style="rounded=1;whiteSpace=wrap;html=1;" vertex="1" parent="j25qMS8JwtOt_eP3hICq-3">
          <mxGeometry x="49.999999999999545" y="40" width="120" height="60" as="geometry" />
        </mxCell>
        <mxCell id="j25qMS8JwtOt_eP3hICq-21" value="点呼接口" style="rounded=1;whiteSpace=wrap;html=1;" vertex="1" parent="j25qMS8JwtOt_eP3hICq-3">
          <mxGeometry x="49.999999999999545" y="210" width="120" height="60" as="geometry" />
        </mxCell>
        <mxCell id="j25qMS8JwtOt_eP3hICq-31" value="接收呼叫结果，组装话单数据" style="rounded=1;whiteSpace=wrap;html=1;" vertex="1" parent="j25qMS8JwtOt_eP3hICq-3">
          <mxGeometry x="49.999999999999545" y="390" width="120" height="60" as="geometry" />
        </mxCell>
        <mxCell id="j25qMS8JwtOt_eP3hICq-33" value="rabbitmq" style="strokeWidth=2;html=1;shape=mxgraph.flowchart.direct_data;whiteSpace=wrap;" vertex="1" parent="j25qMS8JwtOt_eP3hICq-3">
          <mxGeometry x="59.999999999999545" y="520" width="100" height="60" as="geometry" />
        </mxCell>
        <mxCell id="j25qMS8JwtOt_eP3hICq-34" value="生产" style="edgeStyle=orthogonalEdgeStyle;rounded=0;orthogonalLoop=1;jettySize=auto;html=1;entryX=0.5;entryY=0;entryDx=0;entryDy=0;entryPerimeter=0;" edge="1" parent="j25qMS8JwtOt_eP3hICq-3" source="j25qMS8JwtOt_eP3hICq-31" target="j25qMS8JwtOt_eP3hICq-33">
          <mxGeometry relative="1" as="geometry" />
        </mxCell>
        <mxCell id="j25qMS8JwtOt_eP3hICq-4" value="MBS指掌易" style="swimlane;startSize=20;html=1;" vertex="1" parent="j25qMS8JwtOt_eP3hICq-1">
          <mxGeometry x="550" y="20" width="180" height="1080" as="geometry" />
        </mxCell>
        <mxCell id="j25qMS8JwtOt_eP3hICq-12" value="存储坐席工号与手机号对应关系" style="rounded=1;whiteSpace=wrap;html=1;" vertex="1" parent="j25qMS8JwtOt_eP3hICq-4">
          <mxGeometry x="29.999999999999545" y="40" width="120" height="60" as="geometry" />
        </mxCell>
        <mxCell id="j25qMS8JwtOt_eP3hICq-17" value="登录MBS软件&lt;br&gt;账号为坐席工号" style="rounded=1;whiteSpace=wrap;html=1;" vertex="1" parent="j25qMS8JwtOt_eP3hICq-4">
          <mxGeometry x="29.999999999999545" y="130" width="120" height="60" as="geometry" />
        </mxCell>
        <mxCell id="j25qMS8JwtOt_eP3hICq-29" style="edgeStyle=orthogonalEdgeStyle;rounded=0;orthogonalLoop=1;jettySize=auto;html=1;" edge="1" parent="j25qMS8JwtOt_eP3hICq-4" source="j25qMS8JwtOt_eP3hICq-24">
          <mxGeometry relative="1" as="geometry">
            <mxPoint x="89.99999999999955" y="390" as="targetPoint" />
          </mxGeometry>
        </mxCell>
        <mxCell id="j25qMS8JwtOt_eP3hICq-24" value="点呼接口" style="rounded=1;whiteSpace=wrap;html=1;" vertex="1" parent="j25qMS8JwtOt_eP3hICq-4">
          <mxGeometry x="29.999999999999545" y="210" width="120" height="60" as="geometry" />
        </mxCell>
        <mxCell id="j25qMS8JwtOt_eP3hICq-30" value="回调呼叫结果" style="rounded=1;whiteSpace=wrap;html=1;" vertex="1" parent="j25qMS8JwtOt_eP3hICq-4">
          <mxGeometry x="29.999999999999545" y="390" width="120" height="60" as="geometry" />
        </mxCell>
        <mxCell id="j25qMS8JwtOt_eP3hICq-51" value="录音服务" style="swimlane;startSize=20;html=1;" vertex="1" parent="j25qMS8JwtOt_eP3hICq-1">
          <mxGeometry x="730" y="20" width="180" height="1080" as="geometry" />
        </mxCell>
        <mxCell id="j25qMS8JwtOt_eP3hICq-53" value="录音接口" style="rounded=1;whiteSpace=wrap;html=1;" vertex="1" parent="j25qMS8JwtOt_eP3hICq-51">
          <mxGeometry x="29.999999999999545" y="960" width="120" height="60" as="geometry" />
        </mxCell>
        <mxCell id="j25qMS8JwtOt_eP3hICq-13" style="edgeStyle=orthogonalEdgeStyle;rounded=0;orthogonalLoop=1;jettySize=auto;html=1;entryX=0;entryY=0.5;entryDx=0;entryDy=0;" edge="1" parent="j25qMS8JwtOt_eP3hICq-1" source="j25qMS8JwtOt_eP3hICq-11" target="j25qMS8JwtOt_eP3hICq-12">
          <mxGeometry relative="1" as="geometry" />
        </mxCell>
        <mxCell id="j25qMS8JwtOt_eP3hICq-16" style="edgeStyle=orthogonalEdgeStyle;rounded=0;orthogonalLoop=1;jettySize=auto;html=1;entryX=0;entryY=0.5;entryDx=0;entryDy=0;" edge="1" parent="j25qMS8JwtOt_eP3hICq-1" source="j25qMS8JwtOt_eP3hICq-15" target="j25qMS8JwtOt_eP3hICq-17">
          <mxGeometry relative="1" as="geometry">
            <mxPoint x="559.9999999999995" y="180" as="targetPoint" />
          </mxGeometry>
        </mxCell>
        <mxCell id="j25qMS8JwtOt_eP3hICq-28" value="登录" style="edgeLabel;html=1;align=center;verticalAlign=middle;resizable=0;points=[];" vertex="1" connectable="0" parent="j25qMS8JwtOt_eP3hICq-16">
          <mxGeometry x="-0.1977" y="2" relative="1" as="geometry">
            <mxPoint as="offset" />
          </mxGeometry>
        </mxCell>
        <mxCell id="j25qMS8JwtOt_eP3hICq-20" style="edgeStyle=orthogonalEdgeStyle;rounded=0;orthogonalLoop=1;jettySize=auto;html=1;" edge="1" parent="j25qMS8JwtOt_eP3hICq-1" source="j25qMS8JwtOt_eP3hICq-18" target="j25qMS8JwtOt_eP3hICq-19">
          <mxGeometry relative="1" as="geometry" />
        </mxCell>
        <mxCell id="j25qMS8JwtOt_eP3hICq-22" style="edgeStyle=orthogonalEdgeStyle;rounded=0;orthogonalLoop=1;jettySize=auto;html=1;entryX=0;entryY=0.5;entryDx=0;entryDy=0;" edge="1" parent="j25qMS8JwtOt_eP3hICq-1" source="j25qMS8JwtOt_eP3hICq-19" target="j25qMS8JwtOt_eP3hICq-21">
          <mxGeometry relative="1" as="geometry" />
        </mxCell>
        <mxCell id="j25qMS8JwtOt_eP3hICq-23" value="请求" style="edgeLabel;html=1;align=center;verticalAlign=middle;resizable=0;points=[];" vertex="1" connectable="0" parent="j25qMS8JwtOt_eP3hICq-22">
          <mxGeometry x="0.3034" relative="1" as="geometry">
            <mxPoint as="offset" />
          </mxGeometry>
        </mxCell>
        <mxCell id="j25qMS8JwtOt_eP3hICq-25" value="请求" style="edgeStyle=orthogonalEdgeStyle;rounded=0;orthogonalLoop=1;jettySize=auto;html=1;entryX=0;entryY=0.5;entryDx=0;entryDy=0;" edge="1" parent="j25qMS8JwtOt_eP3hICq-1" source="j25qMS8JwtOt_eP3hICq-21" target="j25qMS8JwtOt_eP3hICq-24">
          <mxGeometry relative="1" as="geometry" />
        </mxCell>
        <mxCell id="j25qMS8JwtOt_eP3hICq-32" style="edgeStyle=orthogonalEdgeStyle;rounded=0;orthogonalLoop=1;jettySize=auto;html=1;entryX=1;entryY=0.5;entryDx=0;entryDy=0;" edge="1" parent="j25qMS8JwtOt_eP3hICq-1" source="j25qMS8JwtOt_eP3hICq-30" target="j25qMS8JwtOt_eP3hICq-31">
          <mxGeometry relative="1" as="geometry" />
        </mxCell>
        <mxCell id="j25qMS8JwtOt_eP3hICq-35" style="edgeStyle=orthogonalEdgeStyle;rounded=0;orthogonalLoop=1;jettySize=auto;html=1;entryX=0.5;entryY=0;entryDx=0;entryDy=0;" edge="1" parent="j25qMS8JwtOt_eP3hICq-1" source="j25qMS8JwtOt_eP3hICq-33" target="j25qMS8JwtOt_eP3hICq-36">
          <mxGeometry relative="1" as="geometry">
            <mxPoint x="219.99999999999955" y="570" as="targetPoint" />
          </mxGeometry>
        </mxCell>
        <mxCell id="j25qMS8JwtOt_eP3hICq-37" value="消费消息" style="edgeLabel;html=1;align=center;verticalAlign=middle;resizable=0;points=[];" vertex="1" connectable="0" parent="j25qMS8JwtOt_eP3hICq-35">
          <mxGeometry x="0.087" y="-1" relative="1" as="geometry">
            <mxPoint as="offset" />
          </mxGeometry>
        </mxCell>
        <mxCell id="j25qMS8JwtOt_eP3hICq-44" style="edgeStyle=orthogonalEdgeStyle;rounded=0;orthogonalLoop=1;jettySize=auto;html=1;entryX=0;entryY=0.5;entryDx=0;entryDy=0;" edge="1" parent="j25qMS8JwtOt_eP3hICq-1" source="j25qMS8JwtOt_eP3hICq-42" target="j25qMS8JwtOt_eP3hICq-43">
          <mxGeometry relative="1" as="geometry" />
        </mxCell>
        <mxCell id="j25qMS8JwtOt_eP3hICq-56" style="edgeStyle=orthogonalEdgeStyle;rounded=0;orthogonalLoop=1;jettySize=auto;html=1;entryX=0;entryY=0.5;entryDx=0;entryDy=0;" edge="1" parent="j25qMS8JwtOt_eP3hICq-1" source="j25qMS8JwtOt_eP3hICq-52" target="j25qMS8JwtOt_eP3hICq-55">
          <mxGeometry relative="1" as="geometry" />
        </mxCell>
        <mxCell id="j25qMS8JwtOt_eP3hICq-57" value="查询" style="edgeLabel;html=1;align=center;verticalAlign=middle;resizable=0;points=[];" vertex="1" connectable="0" parent="j25qMS8JwtOt_eP3hICq-56">
          <mxGeometry x="-0.2134" y="1" relative="1" as="geometry">
            <mxPoint as="offset" />
          </mxGeometry>
        </mxCell>
        <mxCell id="j25qMS8JwtOt_eP3hICq-58" style="edgeStyle=orthogonalEdgeStyle;rounded=0;orthogonalLoop=1;jettySize=auto;html=1;entryX=0;entryY=0.5;entryDx=0;entryDy=0;" edge="1" parent="j25qMS8JwtOt_eP3hICq-1" source="j25qMS8JwtOt_eP3hICq-55" target="j25qMS8JwtOt_eP3hICq-53">
          <mxGeometry relative="1" as="geometry" />
        </mxCell>
        <mxCell id="j25qMS8JwtOt_eP3hICq-59" value="查询" style="edgeLabel;html=1;align=center;verticalAlign=middle;resizable=0;points=[];" vertex="1" connectable="0" parent="j25qMS8JwtOt_eP3hICq-58">
          <mxGeometry x="-0.1363" y="2" relative="1" as="geometry">
            <mxPoint as="offset" />
          </mxGeometry>
        </mxCell>
      </root>
    </mxGraphModel>
  </diagram>
</mxfile>
